<svg width="611" height="297" viewBox="0 0 611 297" fill="none" xmlns="http://www.w3.org/2000/svg">
<path d="M610.127 86.7953C610.127 86.7953 567.483 -17.2405 415.858 3.60454C415.858 3.60454 331.611 15.0693 292.568 86.9848H301.666C301.666 86.9848 340.993 24.0706 411.499 16.3011C416.995 15.7326 422.586 15.6378 428.083 16.1116C451.016 18.1013 513.182 29.6609 543.602 86.7953H610.127Z" fill="white"/>
<path d="M277.5 86.8901H316.165L297.401 108.398L277.5 86.8901Z" fill="white"/>
<path d="M297.401 169.891L334.075 210.918H371.982L317.681 148.857L371.318 86.9849H333.412L297.401 127.917L260.443 86.7007H221.399L275.605 148.857L223.389 210.918H261.295L297.401 169.891Z" fill="white"/>
<path d="M293.042 210.824C290.862 214.235 251.819 273.738 183.304 281.413C177.807 281.981 172.216 282.076 166.72 281.602C147.767 279.991 101.805 271.748 69.3008 236.501H0.78537C24.382 265.779 77.0715 308.132 178.85 294.109C178.85 294.109 263.001 282.644 302.139 210.824H293.042Z" fill="white"/>
<path d="M302.234 210.634C302.234 210.729 302.139 210.729 302.139 210.823H317.302L297.401 189.22L278.638 210.823H293.137C293.231 210.729 293.231 210.634 293.231 210.634H302.234Z" fill="white"/>
<path d="M302.234 210.634H293.137C293.137 210.634 293.137 210.729 293.042 210.823H302.139C302.234 210.729 302.234 210.729 302.234 210.634Z" fill="white"/>
</svg>
