<svg width="407" height="377" viewBox="0 0 407 377" fill="none" xmlns="http://www.w3.org/2000/svg">
<path d="M301.032 58.3769C301.032 58.3769 341.973 65.673 341.973 109.45C341.973 153.226 301.032 153.226 301.032 153.226H211.927V58.3769C211.927 58.3769 211.927 0 146.9 0V153.226H48.1649C48.1649 153.226 0 153.226 0 218.899H146.908V321.061C146.908 321.061 144.503 377 211.935 377V218.907H322.713C322.713 218.907 407 209.182 407 114.324C407 19.4671 327.524 0.00815205 322.713 0.00815205C317.895 0.00815205 248.057 0.00815205 248.057 0.00815205C248.057 0.00815205 248.057 58.3769 301.032 58.3769Z" fill="black"/>
</svg>
